<svg xmlns="http://www.w3.org/2000/svg" data-name="Layer 1" viewBox="0 0 100 125" x="0px" y="0px"><defs><style>
      .cls-1 {
        stroke-width: 0px;
      }
    </style></defs><path class="cls-1" d="M68,48c-12.13,0-22,9.87-22,22s9.87,22,22,22,22-9.87,22-22-9.87-22-22-22ZM68,88c-9.93,0-18-8.08-18-18s8.07-18,18-18,18,8.08,18,18-8.07,18-18,18Z"/><path class="cls-1" d="M40,88h-20c-3.31,0-6-2.69-6-6v-42h70c1.1,0,2-.9,2-2v-12c0-5.51-4.49-10-10-10h-10v-6c0-1.1-.9-2-2-2s-2,.9-2,2v6h-28v-6c0-1.1-.9-2-2-2s-2,.9-2,2v6h-10c-5.51,0-10,4.49-10,10v56c0,5.51,4.49,10,10,10h20c1.1,0,2-.9,2-2s-.9-2-2-2ZM14,26c0-3.31,2.69-6,6-6h10v6c0,1.1.9,2,2,2s2-.9,2-2v-6h28v6c0,1.1.9,2,2,2s2-.9,2-2v-6h10c3.31,0,6,2.69,6,6v10H14v-10Z"/><path class="cls-1" d="M70,69.17v-6.17c0-1.1-.9-2-2-2s-2,.9-2,2v7c0,.53.21,1.04.59,1.41l5,5c.39.39.9.59,1.41.59s1.02-.2,1.41-.59c.78-.78.78-2.05,0-2.83l-4.41-4.41Z"/><text x="0" y="115" fill="#000000" font-size="5px" font-weight="bold" font-family="'Helvetica Neue', Helvetica, Arial-Unicode, Arial, Sans-serif">Created by Mert Güler</text><text x="0" y="120" fill="#000000" font-size="5px" font-weight="bold" font-family="'Helvetica Neue', Helvetica, Arial-Unicode, Arial, Sans-serif">from the Noun Project</text></svg>