<svg width="20" height="20" viewBox="0 0 20 20" fill="none" xmlns="http://www.w3.org/2000/svg">
<g clip-path="url(#clip0_275_1439)">
<path d="M4.50764 13.1832C6.3583 15.3954 8.58608 17.1372 11.1288 18.3697C12.0969 18.8285 13.3916 19.3728 14.834 19.4661C14.9234 19.47 15.0089 19.4739 15.0984 19.4739C16.0665 19.4739 16.8441 19.1395 17.4778 18.4513C17.4817 18.4474 17.4894 18.4397 17.4933 18.4319C17.7188 18.1597 17.9754 17.9148 18.2437 17.6543C18.4264 17.4793 18.6131 17.2966 18.7919 17.11C19.62 16.2469 19.62 15.1505 18.7841 14.3146L16.4475 11.9779C16.0509 11.5658 15.5766 11.3481 15.0789 11.3481C14.5813 11.3481 14.1031 11.5658 13.6948 11.974L12.3029 13.3659C12.1746 13.292 12.0425 13.2259 11.918 13.1637C11.7625 13.086 11.6187 13.0121 11.4904 12.9305C10.2229 12.1257 9.07207 11.0759 7.97179 9.72681C7.41581 9.02309 7.04257 8.43213 6.78208 7.8295C7.14755 7.49902 7.48968 7.153 7.82016 6.81475C7.9368 6.69422 8.05732 6.57369 8.17785 6.45317C8.59775 6.03327 8.82325 5.54728 8.82325 5.05351C8.82325 4.55975 8.60163 4.07375 8.17785 3.65386L7.01924 2.49525C6.88317 2.35918 6.75486 2.22699 6.62267 2.09091C6.36607 1.82653 6.0978 1.55437 5.83342 1.30943C5.43297 0.916754 4.96253 0.710693 4.46487 0.710693C3.9711 0.710693 3.49678 0.916754 3.08077 1.31332L1.62668 2.76741C1.09792 3.29617 0.79855 3.93768 0.736343 4.68027C0.662473 5.60949 0.833542 6.59702 1.27677 7.79062C1.95715 9.63738 2.98357 11.352 4.50764 13.1832ZM1.685 4.76192C1.73165 4.24482 1.92994 3.81326 2.30318 3.44002L3.74949 1.99371C3.97499 1.77599 4.22382 1.66324 4.46487 1.66324C4.70204 1.66324 4.94309 1.77599 5.1647 2.00149C5.42519 2.24254 5.67013 2.49525 5.93451 2.76352C6.0667 2.8996 6.20278 3.03568 6.33886 3.17564L7.49746 4.33425C7.73851 4.5753 7.86293 4.82024 7.86293 5.06129C7.86293 5.30234 7.73851 5.54728 7.49746 5.78833C7.37693 5.90886 7.25641 6.03327 7.13588 6.1538C6.7743 6.51926 6.43605 6.86529 6.06281 7.19576C6.05504 7.20354 6.05115 7.20743 6.04337 7.2152C5.72067 7.5379 5.77122 7.84505 5.84898 8.07832C5.85286 8.08999 5.85675 8.09776 5.86064 8.10943C6.16001 8.82869 6.57602 9.51297 7.22531 10.3294C8.39169 11.768 9.62027 12.8838 10.9733 13.743C11.1405 13.8519 11.3193 13.9374 11.4865 14.023C11.642 14.1007 11.7859 14.1746 11.9142 14.2562C11.9297 14.264 11.9414 14.2718 11.9569 14.2796C12.0852 14.3457 12.2096 14.3768 12.3341 14.3768C12.6451 14.3768 12.8473 14.1785 12.9134 14.1124L14.3674 12.6583C14.5929 12.4328 14.8379 12.3123 15.0789 12.3123C15.3744 12.3123 15.6155 12.495 15.7671 12.6583L18.1115 14.9988C18.5781 15.4654 18.5742 15.9708 18.0999 16.4646C17.9366 16.6395 17.7655 16.8067 17.5828 16.9817C17.3106 17.2461 17.0268 17.5182 16.7702 17.8254C16.3231 18.3075 15.7904 18.533 15.1023 18.533C15.0362 18.533 14.9662 18.5291 14.9001 18.5252C13.6248 18.4436 12.439 17.9459 11.5487 17.5221C9.13039 16.3518 7.00758 14.6917 5.24635 12.5844C3.79615 10.8388 2.82028 9.2136 2.17488 7.47181C1.77442 6.40263 1.62279 5.54339 1.685 4.76192Z" fill="black"/>
</g>
<defs>
<clipPath id="clip0_275_1439">
<rect width="18.7632" height="18.7632" fill="white" transform="translate(0.684204 0.710693)"/>
</clipPath>
</defs>
</svg>
