<svg width="31" height="31" viewBox="0 0 31 31" fill="none" xmlns="http://www.w3.org/2000/svg">
<path d="M9.78437 21.8615L17.5667 18.0511C17.6743 18.008 17.7658 17.9488 17.8411 17.8734C17.9165 17.7981 17.9757 17.7066 18.0187 17.599L21.8292 9.81668C21.9368 9.6014 21.9099 9.41303 21.7484 9.25157C21.587 9.09011 21.3986 9.0632 21.1833 9.17084L13.401 12.9813C13.2934 13.0243 13.2019 13.0835 13.1266 13.1589C13.0512 13.2342 12.992 13.3257 12.949 13.4333L9.13854 21.2156C9.0309 21.4309 9.05781 21.6193 9.21927 21.7807C9.38073 21.9422 9.5691 21.9691 9.78437 21.8615ZM15.5 16.7917C15.134 16.7917 14.8273 16.6679 14.5797 16.4203C14.3321 16.1728 14.2083 15.866 14.2083 15.5C14.2083 15.134 14.3321 14.8273 14.5797 14.5797C14.8273 14.3321 15.134 14.2083 15.5 14.2083C15.866 14.2083 16.1727 14.3321 16.4203 14.5797C16.6679 14.8273 16.7917 15.134 16.7917 15.5C16.7917 15.866 16.6679 16.1728 16.4203 16.4203C16.1727 16.6679 15.866 16.7917 15.5 16.7917ZM15.5 28.4167C13.7347 28.4167 12.0663 28.0776 10.4948 27.3995C8.92326 26.7214 7.55087 25.7957 6.3776 24.6224C5.20434 23.4491 4.27864 22.0767 3.60052 20.5052C2.92239 18.9337 2.58333 17.2653 2.58333 15.5C2.58333 13.7347 2.92239 12.0663 3.60052 10.4948C4.27864 8.92327 5.20434 7.55088 6.3776 6.37761C7.55087 5.20435 8.92326 4.27866 10.4948 3.60053C12.0663 2.92241 13.7347 2.58334 15.5 2.58334C17.2653 2.58334 18.9337 2.92241 20.5052 3.60053C22.0767 4.27866 23.4491 5.20435 24.6224 6.37761C25.7957 7.55088 26.7214 8.92327 27.3995 10.4948C28.0776 12.0663 28.4167 13.7347 28.4167 15.5C28.4167 17.2653 28.0776 18.9337 27.3995 20.5052C26.7214 22.0767 25.7957 23.4491 24.6224 24.6224C23.4491 25.7957 22.0767 26.7214 20.5052 27.3995C18.9337 28.0776 17.2653 28.4167 15.5 28.4167ZM15.5 26.4792C18.5139 26.4792 21.0972 25.4028 23.25 23.25C25.4028 21.0972 26.4792 18.5139 26.4792 15.5C26.4792 12.4861 25.4028 9.90279 23.25 7.75001C21.0972 5.59723 18.5139 4.52084 15.5 4.52084C12.4861 4.52084 9.90278 5.59723 7.75 7.75001C5.59722 9.90279 4.52083 12.4861 4.52083 15.5C4.52083 18.5139 5.59722 21.0972 7.75 23.25C9.90278 25.4028 12.4861 26.4792 15.5 26.4792Z" fill="white"/>
</svg>
