<svg width="20" height="15" viewBox="0 0 20 15" fill="none" xmlns="http://www.w3.org/2000/svg">
<path d="M17.7983 0.558594H2.33331C1.42513 0.558594 0.684204 1.29871 0.684204 2.2077V13.2017C0.684204 14.1076 1.42183 14.8508 2.33331 14.8508H17.7983C18.7042 14.8508 19.4474 14.1132 19.4474 13.2017V2.2077C19.4474 1.30179 18.7097 0.558594 17.7983 0.558594ZM17.5705 1.658L10.1007 9.12782L2.56635 1.658H17.5705ZM1.78361 12.9741V2.43011L7.0783 7.6794L1.78361 12.9741ZM2.561 13.7514L7.85902 8.45341L9.71544 10.2939C9.93034 10.507 10.2771 10.5063 10.4911 10.2922L12.3012 8.48211L17.5706 13.7514H2.561ZM18.348 12.974L13.0786 7.70472L18.348 2.43535V12.974Z" fill="black"/>
</svg>
