<svg width="31" height="31" viewBox="0 0 31 31" fill="none" xmlns="http://www.w3.org/2000/svg">
<path d="M15.5 15.1771C16.1243 15.1771 16.6571 14.9564 17.0984 14.5151C17.5398 14.0738 17.7604 13.541 17.7604 12.9167C17.7604 12.2924 17.5398 11.7596 17.0984 11.3182C16.6571 10.8769 16.1243 10.6563 15.5 10.6563C14.8757 10.6563 14.3429 10.8769 13.9016 11.3182C13.4602 11.7596 13.2396 12.2924 13.2396 12.9167C13.2396 13.541 13.4602 14.0738 13.9016 14.5151C14.3429 14.9564 14.8757 15.1771 15.5 15.1771ZM15.5 25.8656C18.3632 23.2608 20.4783 20.8981 21.8453 18.7776C23.2123 16.6571 23.8958 14.7896 23.8958 13.175C23.8958 10.6347 23.0832 8.5573 21.4578 6.94272C19.8325 5.32814 17.8465 4.52084 15.5 4.52084C13.1535 4.52084 11.1675 5.32814 9.54219 6.94272C7.91684 8.5573 7.10417 10.6347 7.10417 13.175C7.10417 14.7896 7.80382 16.6571 9.20312 18.7776C10.6024 20.8981 12.7014 23.2608 15.5 25.8656ZM15.5 28.4167C12.034 25.4674 9.44531 22.728 7.73385 20.1984C6.0224 17.6689 5.16667 15.3278 5.16667 13.175C5.16667 9.94584 6.20538 7.37327 8.28281 5.4573C10.3602 3.54133 12.766 2.58334 15.5 2.58334C18.234 2.58334 20.6398 3.54133 22.7172 5.4573C24.7946 7.37327 25.8333 9.94584 25.8333 13.175C25.8333 15.3278 24.9776 17.6689 23.2661 20.1984C21.5547 22.728 18.966 25.4674 15.5 28.4167Z" fill="white"/>
</svg>
