<svg width="21" height="22" viewBox="0 0 21 22" fill="none" xmlns="http://www.w3.org/2000/svg">
<g clip-path="url(#clip0_166_182)">
<path d="M9.58877 0.74091C9.16418 0.779551 8.43266 0.942509 7.98276 1.09287C6.86018 1.46625 5.97314 2.02002 5.11963 2.87388C4.00548 3.98121 3.29083 5.3502 3.00077 6.92541C2.92507 7.33743 2.9082 7.57767 2.9082 8.26437C2.9082 9.13566 2.96704 9.61635 3.18139 10.4746C3.74052 12.7063 5.19513 15.5818 7.16279 18.3244C8.31479 19.9381 9.15554 20.878 9.70644 21.1741C9.8957 21.2728 9.97552 21.29 10.2824 21.29C10.6104 21.29 10.6608 21.2772 10.9132 21.1399C11.7961 20.655 14.0705 17.6207 15.4874 15.0369C16.5973 13.0196 17.2827 11.23 17.5602 9.60774C17.6947 8.83095 17.6989 7.64634 17.5643 6.92541C17.3415 5.72379 16.7991 4.49634 16.0928 3.58641C15.8532 3.2817 15.2478 2.65506 14.9493 2.40621C13.4694 1.17855 11.4933 0.56052 9.58877 0.74091ZM11.0814 4.92957C11.96 5.17422 12.6286 5.66352 13.0995 6.40587C13.4737 6.98946 13.6251 7.5174 13.6251 8.26416C13.6251 9.22974 13.3056 10.0282 12.658 10.689C12.0106 11.3501 11.2285 11.6762 10.2826 11.6762C9.55113 11.6762 9.03396 11.5217 8.46228 11.1397C7.54994 10.5345 7.00336 9.57309 6.93197 8.45295C6.82274 6.7362 7.99984 5.22126 9.71529 4.87791C9.99671 4.82226 10.7955 4.85229 11.0814 4.92957Z" fill="black"/>
</g>
<defs>
<clipPath id="clip0_166_182">
<rect width="20.5714" height="21" fill="white" transform="translate(0 0.5)"/>
</clipPath>
</defs>
</svg>
