<svg width="21" height="21" viewBox="0 0 21 21" fill="none" xmlns="http://www.w3.org/2000/svg">
<g clip-path="url(#clip0_306_4915)">
<path d="M20.9909 14.7896L19.4624 8.42246C19.4592 8.40929 19.4551 8.39654 19.4505 8.3841C19.3342 7.98137 18.7738 7.67706 17.6817 7.421C17.474 6.38168 16.5133 5.59331 15.3625 5.59331C15.289 5.59331 15.2155 5.59666 15.142 5.60325C14.7407 4.86554 13.9318 4.38703 13.044 4.38703C12.773 4.38703 12.5038 4.43173 12.2502 4.51776C11.8714 3.95719 11.2181 3.61011 10.5 3.61011C9.78195 3.61011 9.12869 3.95715 8.74991 4.51776C8.49625 4.43173 8.22709 4.38703 7.95613 4.38703C7.06831 4.38703 6.25941 4.86558 5.85814 5.60325C5.78463 5.59662 5.71104 5.59331 5.63762 5.59331C4.48674 5.59331 3.52606 6.38168 3.31834 7.421C2.20078 7.68307 1.63974 7.99552 1.54185 8.4124C1.54039 8.41747 1.53859 8.42238 1.53738 8.42757L0.00918816 14.7896C0.00309134 14.815 0 14.841 0 14.867C0 15.5332 1.09219 16.1272 3.24612 16.6326C5.32746 17.121 7.90362 17.3899 10.5 17.3899C13.0964 17.3899 15.6725 17.121 17.7539 16.6326C19.9079 16.1272 21 15.5332 21 14.8671C21 14.841 20.997 14.815 20.9909 14.7896ZM17.702 8.14408C18.3966 8.32363 18.6393 8.48147 18.7175 8.54959C18.6277 8.6281 18.3199 8.82556 17.363 9.03656C17.5401 8.76741 17.6566 8.46368 17.702 8.14408ZM5.63758 6.28841C5.75775 6.28841 5.87913 6.30142 5.99836 6.32701C6.17775 6.36561 6.35915 6.27103 6.42179 6.10641C6.65501 5.49374 7.27157 5.08209 7.95608 5.08209C8.22941 5.08209 8.49982 5.14772 8.73798 5.27191C8.82887 5.31926 8.9366 5.32764 9.03436 5.29489C9.13208 5.26214 9.21061 5.19135 9.25033 5.10021C9.46071 4.61721 9.95124 4.30517 10.5 4.30517C11.0488 4.30517 11.5393 4.61725 11.7497 5.10021C11.7894 5.19135 11.868 5.26214 11.9657 5.29489C12.0634 5.32764 12.1712 5.31926 12.2621 5.27191C12.5002 5.14772 12.7706 5.08209 13.044 5.08209C13.7285 5.08209 14.345 5.49374 14.5783 6.10641C14.6409 6.27099 14.8223 6.3657 15.0017 6.32701C15.1209 6.30142 15.2423 6.28841 15.3625 6.28841C16.2621 6.28841 16.9696 6.9858 16.994 7.84226C17.0109 8.43505 16.5669 8.95584 16.1341 9.25385C14.5788 9.47613 12.585 9.59823 10.5 9.59823C8.46684 9.59823 6.52046 9.48206 4.98273 9.27017C4.40825 9.01501 4.00608 8.44614 4.00608 7.84226C4.00604 6.98548 4.73795 6.28841 5.63758 6.28841ZM3.2979 8.14412C3.34359 8.4647 3.46114 8.76844 3.63778 9.03672C2.68032 8.82568 2.37239 8.62814 2.28257 8.54959C2.36067 8.48147 2.60334 8.32367 3.2979 8.14412ZM17.4173 15.995C15.4187 16.4463 12.9621 16.6948 10.5 16.6948C8.038 16.6948 5.58137 16.4463 3.58274 15.995C1.61398 15.5504 0.834576 15.0654 0.736985 14.8769L2.08567 9.26207C2.22401 9.336 2.35449 9.38605 2.43121 9.41545C2.88894 9.59096 3.53495 9.74708 4.35124 9.87948C5.9969 10.1464 8.18055 10.2934 10.5 10.2934C12.8195 10.2934 15.0032 10.1464 16.6488 9.87948C17.4651 9.74708 18.1111 9.59096 18.5688 9.41545C18.6457 9.38597 18.7765 9.33584 18.9151 9.2617L20.2631 14.8769C20.1656 15.0653 19.3861 15.5504 17.4173 15.995Z" fill="white"/>
<path d="M14.9396 10.5706C14.0916 10.5706 13.3857 11.1615 13.2521 11.9336H7.74793C7.61432 11.1615 6.90842 10.5706 6.0604 10.5706C5.11737 10.5706 4.35016 11.3013 4.35016 12.1994C4.35016 12.5576 4.47309 12.9007 4.69545 13.1808C4.47309 13.4608 4.35016 13.8039 4.35016 14.1621C4.35016 15.0603 5.11737 15.7909 6.0604 15.7909C6.90842 15.7909 7.61428 15.2 7.74793 14.4279H13.2521C13.3857 15.2001 14.0916 15.7909 14.9396 15.7909C15.8826 15.7909 16.6498 15.0603 16.6498 14.1621C16.6498 13.8039 16.5269 13.4608 16.3046 13.1808C16.5269 12.9007 16.6498 12.5576 16.6498 12.1994C16.6498 11.3013 15.8826 10.5706 14.9396 10.5706ZM15.5695 13.447C15.7922 13.6251 15.9199 13.8858 15.9199 14.1622C15.9199 14.677 15.4802 15.0958 14.9396 15.0958C14.399 15.0958 13.9592 14.677 13.9592 14.1622C13.9592 14.1421 13.9601 14.1222 13.9614 14.1024C13.9678 14.0066 13.9323 13.9125 13.8633 13.8426C13.7943 13.7726 13.698 13.7329 13.5972 13.7329H7.40282C7.30201 13.7329 7.2057 13.7726 7.13671 13.8426C7.06771 13.9126 7.0322 14.0066 7.0386 14.1024C7.03993 14.1222 7.04079 14.1421 7.04079 14.1622C7.04079 14.677 6.601 15.0958 6.0604 15.0958C5.51985 15.0958 5.08006 14.677 5.08006 14.1622C5.08006 13.8858 5.2078 13.6251 5.43054 13.447C5.51311 13.3809 5.56081 13.2835 5.56081 13.1808C5.56081 13.0781 5.51315 12.9807 5.43054 12.9147C5.2078 12.7365 5.08006 12.4759 5.08006 12.1994C5.08006 11.6846 5.51985 11.2658 6.0604 11.2658C6.601 11.2658 7.04079 11.6846 7.04079 12.1994C7.04079 12.2195 7.03993 12.2394 7.0386 12.2592C7.0322 12.355 7.06771 12.4491 7.13671 12.519C7.20566 12.589 7.30201 12.6287 7.40282 12.6287H13.5972C13.698 12.6287 13.7943 12.589 13.8633 12.519C13.9323 12.449 13.9678 12.355 13.9614 12.2592C13.9601 12.2394 13.9592 12.2195 13.9592 12.1994C13.9592 11.6846 14.399 11.2658 14.9396 11.2658C15.4802 11.2658 15.9199 11.6846 15.9199 12.1994C15.9199 12.4758 15.7922 12.7365 15.5695 12.9147C15.4869 12.9807 15.4392 13.0781 15.4392 13.1808C15.4392 13.2835 15.4869 13.3809 15.5695 13.447Z" fill="white"/>
</g>
<defs>
<clipPath id="clip0_306_4915">
<rect width="21" height="20" fill="white" transform="translate(0 0.5)"/>
</clipPath>
</defs>
</svg>
