<svg width="23" height="22" viewBox="0 0 23 22" fill="none" xmlns="http://www.w3.org/2000/svg">
<g clip-path="url(#clip0_166_152)">
<path d="M12.3473 1.06104e-05C10.55 -0.00256722 8.78329 0.464614 7.2222 1.35525C5.66112 2.24588 4.35991 3.52903 3.44755 5.07751C2.53519 6.626 2.04337 8.38604 2.02083 10.1832C1.99829 11.9803 2.44582 13.7521 3.31906 15.323L0.767057 20.6873C0.686405 20.858 0.660424 21.0495 0.692667 21.2355C0.72491 21.4215 0.813802 21.593 0.947199 21.7266C1.08059 21.8602 1.25199 21.9494 1.43796 21.9819C1.62393 22.0144 1.8154 21.9887 1.98622 21.9083L7.35055 19.3536C8.72917 20.1174 10.2644 20.5555 11.8385 20.6341C13.4126 20.7128 14.9838 20.43 16.4317 19.8074C17.8796 19.1848 19.1658 18.239 20.1915 17.0424C21.2173 15.8458 21.9555 14.4303 22.3495 12.9042C22.7435 11.3782 22.7828 9.78219 22.4645 8.23858C22.1462 6.69498 21.4787 5.24475 20.5132 3.99906C19.5476 2.75337 18.3097 1.74529 16.8942 1.0521C15.4788 0.358916 13.9234 -0.000977166 12.3473 1.06104e-05ZM12.3473 18.8201C10.7672 18.8173 9.21935 18.3728 7.87855 17.5368C7.74783 17.456 7.59889 17.4094 7.44544 17.4012C7.29199 17.393 7.13895 17.4236 7.00039 17.49L4.11289 18.865C4.07017 18.8853 4.02223 18.8918 3.97564 18.8837C3.92905 18.8757 3.8861 18.8534 3.85266 18.82C3.81923 18.7865 3.79696 18.7436 3.7889 18.697C3.78084 18.6504 3.78738 18.6025 3.80764 18.5598L5.18264 15.6723C5.24867 15.5335 5.27874 15.3803 5.27009 15.2268C5.26145 15.0734 5.21435 14.9246 5.13314 14.7941C4.14517 13.1952 3.71587 11.3135 3.91259 9.44434C4.10931 7.57514 4.92092 5.8241 6.22011 4.4659C7.5193 3.10769 9.23258 2.21915 11.0912 1.93964C12.9498 1.66013 14.8487 2.00547 16.4899 2.92149C18.1311 3.8375 19.4218 5.27238 20.1596 7.00105C20.8974 8.72972 21.0405 10.6544 20.5665 12.4732C20.0925 14.2919 19.0281 15.9019 17.5405 17.0506C16.0528 18.1993 14.2259 18.8216 12.3464 18.8201H12.3473Z" fill="black"/>
<path d="M6.63403 8.7074C6.63403 9.07207 6.7789 9.42181 7.03676 9.67967C7.29462 9.93753 7.64436 10.0824 8.00903 10.0824C8.3737 10.0824 8.72344 9.93753 8.9813 9.67967C9.23917 9.42181 9.38403 9.07207 9.38403 8.7074C9.38403 8.34272 9.23917 7.99299 8.9813 7.73513C8.72344 7.47726 8.3737 7.3324 8.00903 7.3324C7.64436 7.3324 7.29462 7.47726 7.03676 7.73513C6.7789 7.99299 6.63403 8.34272 6.63403 8.7074Z" fill="black"/>
<path d="M15.3423 8.7074C15.3423 9.07207 15.4872 9.42181 15.745 9.67967C16.0029 9.93753 16.3526 10.0824 16.7173 10.0824C17.082 10.0824 17.4317 9.93753 17.6896 9.67967C17.9474 9.42181 18.0923 9.07207 18.0923 8.7074C18.0923 8.34272 17.9474 7.99299 17.6896 7.73513C17.4317 7.47726 17.082 7.3324 16.7173 7.3324C16.3526 7.3324 16.0029 7.47726 15.745 7.73513C15.4872 7.99299 15.3423 8.34272 15.3423 8.7074Z" fill="black"/>
<path d="M14.6548 11.472H10.1018C10.0416 11.472 9.98198 11.4839 9.92637 11.5069C9.87076 11.53 9.82024 11.5637 9.77768 11.6063C9.73512 11.6488 9.70135 11.6994 9.67832 11.755C9.65529 11.8106 9.64343 11.8702 9.64343 11.9304C9.65655 12.647 9.95046 13.3299 10.4619 13.8321C10.9734 14.3343 11.6615 14.6156 12.3783 14.6156C13.0951 14.6156 13.7832 14.3343 14.2947 13.8321C14.8062 13.3299 15.1001 12.647 15.1132 11.9304C15.1132 11.8088 15.0649 11.6922 14.9789 11.6063C14.893 11.5203 14.7764 11.472 14.6548 11.472Z" fill="black"/>
</g>
<defs>
<clipPath id="clip0_166_152">
<rect width="22" height="22" fill="white" transform="translate(0.675659)"/>
</clipPath>
</defs>
</svg>
