<svg width="36" height="33" viewBox="0 0 36 33" fill="none" xmlns="http://www.w3.org/2000/svg">
<path d="M8.25 26.8125H13.875V18.2188H22.125V26.8125H27.75V13.4062L18 6.70312L8.25 13.4062V26.8125ZM8.25 28.875C7.625 28.875 7.09375 28.6745 6.65625 28.2734C6.21875 27.8724 6 27.3854 6 26.8125V13.4062C6 13.0854 6.08125 12.776 6.24375 12.4781C6.40625 12.1802 6.625 11.9396 6.9 11.7563L16.65 5.05312C16.85 4.91562 17.0625 4.8125 17.2875 4.74375C17.5125 4.675 17.75 4.64062 18 4.64062C18.25 4.64062 18.4875 4.675 18.7125 4.74375C18.9375 4.8125 19.15 4.91562 19.35 5.05312L29.1 11.7563C29.375 11.9396 29.5938 12.1802 29.7562 12.4781C29.9187 12.776 30 13.0854 30 13.4062V26.8125C30 27.3854 29.7812 27.8724 29.3438 28.2734C28.9062 28.6745 28.375 28.875 27.75 28.875H19.875V20.2812H16.125V28.875H8.25Z" fill="white"/>
<path d="M8.25 26.8125H13.875V18.2188H22.125V26.8125H27.75V13.4062L18 6.70312L8.25 13.4062V26.8125ZM8.25 28.875C7.625 28.875 7.09375 28.6745 6.65625 28.2734C6.21875 27.8724 6 27.3854 6 26.8125V13.4062C6 13.0854 6.08125 12.776 6.24375 12.4781C6.40625 12.1802 6.625 11.9396 6.9 11.7563L16.65 5.05312C16.85 4.91562 17.0625 4.8125 17.2875 4.74375C17.5125 4.675 17.75 4.64062 18 4.64062C18.25 4.64062 18.4875 4.675 18.7125 4.74375C18.9375 4.8125 19.15 4.91562 19.35 5.05312L29.1 11.7563C29.375 11.9396 29.5938 12.1802 29.7562 12.4781C29.9187 12.776 30 13.0854 30 13.4062V26.8125C30 27.3854 29.7812 27.8724 29.3438 28.2734C28.9062 28.6745 28.375 28.875 27.75 28.875H19.875V20.2812H16.125V28.875H8.25Z" stroke="white"/>
</svg>
