<svg width="20" height="20" viewBox="0 0 20 20" fill="none" xmlns="http://www.w3.org/2000/svg">
<path d="M9.49632 19.0026C9.43377 19.0026 9.37043 18.9876 9.31342 18.9575L0.214092 14.2067C0.0834455 14.1386 0.00109863 14.0032 0.00109863 13.856V4.94824C0.00109863 4.81126 0.0723603 4.68378 0.188754 4.61172C0.305149 4.53967 0.451631 4.53334 0.573568 4.59431L9.6729 9.14714C9.80671 9.21444 9.89143 9.35142 9.89143 9.50107V18.6067C9.89143 18.7453 9.81938 18.8736 9.70061 18.9456C9.63885 18.9836 9.56759 19.0026 9.49632 19.0026ZM0.792895 13.616L9.10043 17.9535V9.74574L0.792895 5.5888V13.616Z" fill="black"/>
<path d="M9.50894 19.0027C9.43767 19.0027 9.36641 18.9837 9.30386 18.9457C9.18588 18.8737 9.11304 18.7454 9.11304 18.6068V9.50117C9.11304 9.35152 9.19776 9.21454 9.33157 9.14724L18.4309 4.59441C18.552 4.53265 18.6993 4.53898 18.8157 4.61183C18.9329 4.68388 19.0042 4.81136 19.0042 4.94834V13.8561C19.0042 14.0033 18.9218 14.1387 18.7912 14.2068L9.69184 18.9576C9.63483 18.9877 9.57149 19.0027 9.50894 19.0027ZM9.90483 9.74584V17.9536L18.2124 13.6161V5.5889L9.90483 9.74584ZM18.6083 13.8561H18.6162H18.6083Z" fill="black"/>
<path d="M0.396721 5.34423C0.251031 5.34423 0.111674 5.26426 0.0419964 5.1257C-0.0561864 4.93012 0.023785 4.69258 0.219359 4.5944L9.33136 0.0415693C9.443 -0.0138564 9.57444 -0.0138564 9.68529 0.0415693L18.7846 4.5944C18.9802 4.69258 19.0594 4.93012 18.962 5.1257C18.8638 5.32127 18.627 5.39966 18.4307 5.30306L9.50872 0.838117L0.574084 5.30227C0.517074 5.33077 0.456898 5.34423 0.396721 5.34423Z" fill="black"/>
<path d="M14.2534 11.8764C14.0348 11.8764 13.8575 11.699 13.8575 11.4805V7.37028L4.97666 2.92672C4.78109 2.82933 4.70191 2.591 4.80009 2.39542C4.89828 2.19985 5.13581 2.12146 5.33139 2.21806L14.4307 6.77089C14.5645 6.83899 14.6493 6.97597 14.6493 7.12562V11.4805C14.6493 11.699 14.4719 11.8764 14.2534 11.8764Z" fill="black"/>
</svg>
