<svg width="36" height="36" viewBox="0 0 36 36" fill="none" xmlns="http://www.w3.org/2000/svg">
<path d="M16.9776 30.3948C18.8298 30.3948 20.3792 29.0744 20.735 27.3267H13.2202C13.5761 29.0744 15.1255 30.3948 16.9776 30.3948Z" fill="white"/>
<path d="M24.1488 18.1215C24.1447 18.1215 24.1406 18.1224 24.1364 18.1224C20.1899 18.1224 16.9776 14.9111 16.9776 10.9636C16.9776 9.8784 17.2272 8.85257 17.6618 7.93012C17.4368 7.90877 17.2087 7.89548 16.9776 7.89548C13.0239 7.89548 9.81874 11.1005 9.81874 15.0543V17.9056C9.81874 19.9295 8.93205 21.84 7.37647 23.1551C6.85794 23.598 6.62779 24.3036 6.81393 24.992C7.03078 25.7927 7.82234 26.3041 8.65285 26.3041H25.2973C26.1686 26.3041 26.9899 25.7395 27.1667 24.8856C27.3038 24.2249 27.0686 23.5652 26.5562 23.1347C25.0692 21.8881 24.2091 20.0563 24.1488 18.1215Z" fill="white"/>
<path d="M29.25 10.9636C29.25 13.7877 26.9607 16.077 24.1364 16.077C21.3123 16.077 19.023 13.7877 19.023 10.9636C19.023 8.13947 21.3123 5.85001 24.1364 5.85001C26.9607 5.85001 29.25 8.13947 29.25 10.9636Z" fill="white"/>
</svg>
