<svg width="28" height="27" viewBox="0 0 28 27" fill="none" xmlns="http://www.w3.org/2000/svg">
<path d="M5.71875 18.3345C5.45605 21.4979 7.84226 24.0811 11.0166 24.0811H16.2597C19.8281 24.0811 22.2799 21.2023 21.6889 17.6777C21.0649 13.978 17.4966 10.946 13.7421 10.946C9.67023 10.946 6.05807 14.2735 5.71875 18.3345Z" stroke="#141415" stroke-width="1.64189" stroke-linecap="round" stroke-linejoin="round"/>
<path d="M12.3521 8.20929C13.8634 8.20929 15.0886 6.98413 15.0886 5.47281C15.0886 3.96149 13.8634 2.73633 12.3521 2.73633C10.8408 2.73633 9.6156 3.96149 9.6156 5.47281C9.6156 6.98413 10.8408 8.20929 12.3521 8.20929Z" stroke="#141415" stroke-width="1.64189" stroke-linecap="round" stroke-linejoin="round"/>
<path d="M19.8282 9.52284C21.0373 9.52284 22.0174 8.54271 22.0174 7.33366C22.0174 6.1246 21.0373 5.14447 19.8282 5.14447C18.6192 5.14447 17.639 6.1246 17.639 7.33366C17.639 8.54271 18.6192 9.52284 19.8282 9.52284Z" stroke="#141415" stroke-width="1.64189" stroke-linecap="round" stroke-linejoin="round"/>
<path d="M23.8781 13.9012C24.7849 13.9012 25.52 13.1661 25.52 12.2593C25.52 11.3525 24.7849 10.6174 23.8781 10.6174C22.9713 10.6174 22.2362 11.3525 22.2362 12.2593C22.2362 13.1661 22.9713 13.9012 23.8781 13.9012Z" stroke="#141415" stroke-width="1.64189" stroke-linecap="round" stroke-linejoin="round"/>
<path d="M5.23728 11.7119C6.44634 11.7119 7.42647 10.7318 7.42647 9.52274C7.42647 8.31369 6.44634 7.33356 5.23728 7.33356C4.02823 7.33356 3.0481 8.31369 3.0481 9.52274C3.0481 10.7318 4.02823 11.7119 5.23728 11.7119Z" stroke="#141415" stroke-width="1.64189" stroke-linecap="round" stroke-linejoin="round"/>
</svg>
