<svg width="32" height="29" viewBox="0 0 32 29" fill="none" xmlns="http://www.w3.org/2000/svg">
<path d="M6.46666 26.5833V14.4396L5.99999 14.0167C5.75555 13.7951 5.58333 13.5635 5.48333 13.3219C5.38333 13.0802 5.33333 12.8184 5.33333 12.5364C5.33333 12.2545 5.38333 11.9877 5.48333 11.7359C5.58333 11.4842 5.75555 11.2476 5.99999 11.026L10.2667 7.12916H16.2667L21.4667 2.41666L23.9667 4.68228C24.8333 5.4677 25.4833 6.36891 25.9167 7.38593C26.35 8.40294 26.5778 9.42499 26.6 10.4521C26.5778 11.4792 26.35 12.5012 25.9167 13.5182C25.4833 14.5352 24.8333 15.4364 23.9667 16.2219L21.1333 18.7896V26.5833H6.46666ZM8.46666 24.7708H19.1333V18.0344L22.5333 14.9531C23.2222 14.3288 23.7389 13.629 24.0833 12.8536C24.4278 12.0783 24.6 11.2778 24.6 10.4521C24.6 9.62638 24.4278 8.83089 24.0833 8.06561C23.7389 7.30034 23.2222 6.60555 22.5333 5.98124L21.4667 4.98436L17.1 8.94166H11.1L10 9.93853L12.4667 12.1739C13.0889 12.7378 13.5556 13.3672 13.8667 14.062C14.1778 14.7568 14.3333 15.4767 14.3333 16.2219C14.3333 16.9267 14.2 17.6114 13.9333 18.276C13.6667 18.9406 13.2556 19.5448 12.7 20.0885L8.46666 16.2521V24.7708Z" fill="white"/>
</svg>
